<?xml version="1.0" encoding="UTF-8"?>
<svg id="rccl-logo" xmlns="http://www.w3.org/2000/svg" viewBox="0 0 33.7 37.3">
  <defs>
    <style>
      .cls-1 {
        fill: #fff;
        stroke-width: 0px;
      }
    </style>
  </defs>
  <g id="logo-crownanchor">
    <g id="anchor">
      <path class="cls-1" d="M2.36,14.1l.33,3.4h10.87s0,11.75,0,11.75h-5.29c-1.18,0-2.2-.91-2.2-1.97s1.13-1.98,2.36-2.69l-5.42-3.76,1,10.35,12.84,4.88,12.84-4.88,1-10.35-5.42,3.76c1.24.71,2.36,1.63,2.36,2.69,0,1.06-1.02,1.97-2.2,1.97h-5.29s0-11.75,0-11.75h10.87s.33-3.4.33-3.4H2.36Z"/>
    </g>
    <g id="crown">
      <polygon class="cls-1" points="2.19 12.26 1.2 2.05 7.24 6.41 5.1 8.78 8.49 11.12 13.59 8.84 11.62 6.31 16.85 1.24 22.08 6.31 20.11 8.84 25.21 11.12 28.6 8.78 26.46 6.41 32.5 2.05 31.51 12.26 2.19 12.26"/>
    </g>
  </g>
</svg>